# xmcd
#
# Track frame offsets:
#	150
#	11682
#	25307
#	35355
#	50655
#	57825
#	68887
#	80292
#	90357
#	100530
#	112520
#	127617
#	141492
#	154905
#	169217
#
# Disc length: 2531 seconds
#
# Revision: 1
# Processed by: cddbd v1.5.1PL0 Copyright (c) Steve Scherf et al.
# Submitted via: audiograbber 1.83.01
#
DISCID=b209e10f
DTITLE=Jo Bohnsack - Blues Sky
DYEAR=1998
DGENRE=Blues
TTITLE0=Thrill is gone
TTITLE1=Cold Women with warm hearts
TTITLE2=Don't drink so much
TTITLE3=Black nights
TTITLE4=Blues Sky
TTITLE5=Morning, Noon and Night
TTITLE6=Blue Shadows
TTITLE7=Big Boss Man
TTITLE8=Wild Woman
TTITLE9=Cadillac Assembly Line
TTITLE10=Play Like JB
TTITLE11=Red House
TTITLE12=Boogie On Whiskey Street Blues
TTITLE13=Fast Speed Boogie
TTITLE14=Hey Joe
EXTD=
EXTT0=
EXTT1=
EXTT2=
EXTT3=
EXTT4=
EXTT5=
EXTT6=
EXTT7=
EXTT8=
EXTT9=
EXTT10=
EXTT11=
EXTT12=
EXTT13=
EXTT14=
PLAYORDER=
